# xmcd
#
# Track frame offsets:
#	150
#	16006
#	30770
#	46916
#	70843
#	84198
#	97436
#	111933
#	135721
#	149711
#	166758
#
# Disc length: 2382 seconds
#
# Revision: 1
# Processed by: cddbd v1.5.2PL0 Copyright (c) Steve Scherf et al.
# Submitted via: audiograbber 1.83.01
#
DISCID=8a094c0b
DTITLE=Kathy and the Kilowatts - Groovin' with Big D!
DYEAR=2015
DGENRE=Blues
TTITLE0=Off the Clock
TTITLE1=Firefly
TTITLE2=Room for More
TTITLE3=Out of Love
TTITLE4=Last But Not Least
TTITLE5=Take a Chance
TTITLE6=Never Trouble Trouble
TTITLE7=Damage You Can Do
TTITLE8=Help The Bear
TTITLE9=Mr. Negavibes
TTITLE10=Good Rockin' Daddy
EXTD=
EXTT0=
EXTT1=
EXTT2=
EXTT3=
EXTT4=
EXTT5=
EXTT6=
EXTT7=
EXTT8=
EXTT9=
EXTT10=
PLAYORDER=
